<svg xmlns="http://www.w3.org/2000/svg" width="736" height="552"><path fill="#FEFEFE" d="M0 0h736v552H0V0Z"/><path fill="#FD5F8B" d="M431.094 217.086c1.656 1.039 1.656 1.039 3.906 2.914v2l1.805.71c2.728 1.603 3.715 3.202 5.32 5.915l1.508 2.477c3.666 7.771 3.66 15.293 3.642 23.736l.015 3.847c.013 3.46.014 6.92.012 10.381-.001 2.896.003 5.79.008 8.686.011 6.83.012 13.66.006 20.491-.006 7.037.006 14.074.027 21.11.018 6.055.024 12.11.02 18.165-.001 3.61.001 7.22.015 10.831.015 4.024.006 8.048-.006 12.071l.023 3.609c-.065 10.259-.065 10.259-3.395 14.971-3.979 3.104-6.565 4.35-11.625 4.063-4.41-.732-6.686-2.42-9.375-6.063v-3h-2l-.004-2.02a16986.14 16986.14 0 0 0-.18-48.622c-.04-7.838-.072-15.676-.087-23.514-.013-6.831-.04-13.662-.084-20.493a1658.24 1658.24 0 0 1-.037-10.853c.001-4.037-.03-8.073-.062-12.11l.015-3.64-.042-3.332-.011-2.894c-.656-3.258-1.958-4.46-4.508-6.522-1.98-.586-1.98-.586-4-.438l-2 .004c-2.84.616-3.98 1.29-6 3.434-.39 3.046-.523 5.732-.482 8.78l-.012 2.72a665.32 665.32 0 0 0 .008 5.859c.017 3.1.01 6.198-.004 9.298-.03 7.706-.017 15.413-.005 23.12.008 6.498 0 12.997-.03 19.496-.006 3.038.01 6.075.028 9.113-.001 14.146-1.192 25.964-11.503 36.614-3.597 3-3.597 3-6 3v2c-11.821 5.023-21.8 6.86-34 2-5.003-2.501-8.906-5.23-12-10v-2h-2c-.818-1.893-1.63-3.79-2.438-5.688l-1.37-3.199c-2.214-5.783-2.388-11.23-2.508-17.351l-.063-2.67c-.066-2.8-.125-5.603-.183-8.404l-.131-5.713c-.107-4.659-.209-9.317-.307-13.975-3.86-2.112-6.564-2.467-11-2-2.852 1.327-2.852 1.327-5 4-.745 3.148-.67 6.24-.628 9.463l-.022 2.903c-.018 3.169-.002 6.336.013 9.505a2995.54 2995.54 0 0 1-.031 6.606c-.029 5.8-.03 11.599-.022 17.399.007 9.28-.024 18.56-.063 27.84-.009 3.242-.003 6.484.004 9.726l-.011 5.966.017 2.732c-.02 4.368-.102 7.93-2.257 11.86-3.423 2.804-7.676 4.257-12.063 4.625-5.038-.8-7.59-2.88-10.937-6.625-1.15-2.301-1.13-3.606-1.14-6.166l-.018-2.646-.003-2.91-.015-3.061c-.015-3.355-.022-6.71-.027-10.065l-.017-6.989c-.01-4.893-.017-9.787-.02-14.68-.006-6.26-.03-12.518-.058-18.777-.019-4.817-.024-9.634-.026-14.45-.003-2.307-.01-4.614-.024-6.92-.017-3.236-.015-6.471-.008-9.707l-.028-2.868c.064-10.367 2.812-16.997 9.99-24.464 7.417-7.115 14.358-11.318 24.832-11.672 11.622.373 21.079 5.127 29.027 13.492 6.33 7.763 7.874 17.027 7.625 26.766l-.06 5.035a2026.88 2026.88 0 0 1-.146 7.833 952.101 952.101 0 0 0-.107 7.632l-.066 2.349c-.044 4.83.614 8.077 3.289 12.268 2.435 1.217 3.744 1.047 6.438.813l2.37-.168c3.07-.903 3.648-1.828 5.192-4.645.442-3.035.396-6.046.369-9.108l.011-2.79c.007-2 .006-3.999 0-5.998-.009-3.17.001-6.34.017-9.511.04-9.014.041-18.028.039-27.043 0-5.516.019-11.032.05-16.548.01-3.112-.002-6.223-.015-9.335l.03-5.783-.029-2.592c.102-8.633 3.144-16.523 8.528-23.292 6.152-6 6.152-6 9-6v-2c13.669-4.8 23.872-5.772 37.094 1.086Z"/><path fill="#FC5D95" d="M424.766 148.617c6.926 4.287 12.036 8.954 14.644 16.813 1.904 8.294.562 15.092-3.41 22.57-4.103 6.394-9.784 9.963-17 12-8.136.812-15.173.774-22-4l-2.625-1.625c-5.992-5.992-8.989-11.717-9.125-20.313.141-8.305 2.823-14.403 8.133-20.703 8.465-8.03 21.104-9.954 31.383-4.742Z"/><path fill="#FD6186" d="M336 204.563c5.98 3.746 11.02 8.54 13.52 15.308 2.023 8.968.794 16.559-3.684 24.527-4.29 6.079-10.57 10.022-17.836 11.602-8.246 1.116-14.027-.605-21-5l-3.313-2.063c-5.031-5.5-7.907-12.588-8.25-20.062.453-7.612 3.489-14.804 8.758-20.336 9.15-7.802 20.972-9.46 31.805-3.976Z"/><path fill="#ED56C0" d="M431.094 217.086c1.656 1.039 1.656 1.039 3.906 2.914v2c.596.235 1.191.47 1.805.71 2.728 1.603 3.715 3.202 5.32 5.915l1.508 2.477c3.666 7.771 3.66 15.293 3.642 23.736l.015 3.847c.013 3.46.014 6.92.012 10.381-.001 2.896.003 5.79.008 8.686.011 6.83.012 13.66.006 20.491-.006 7.037.006 14.074.027 21.11.018 6.055.024 12.11.02 18.165-.001 3.61.001 7.22.015 10.831.015 4.024.006 8.048-.006 12.071l.023 3.609c-.065 10.259-.065 10.259-3.395 14.971-3.979 3.104-6.565 4.35-11.625 4.063-4.41-.732-6.686-2.42-9.375-6.063v-3h-2l-.004-2.02a16986.14 16986.14 0 0 0-.18-48.622c-.04-7.838-.072-15.676-.087-23.514-.013-6.831-.04-13.662-.084-20.493a1658.24 1658.24 0 0 1-.037-10.853c.001-4.037-.03-8.073-.062-12.11l.015-3.64-.042-3.332-.011-2.894c-.656-3.258-1.958-4.46-4.508-6.522-1.98-.586-1.98-.586-4-.438l-2 .004c-2.84.616-3.98 1.29-6 3.434-.39 3.046-.523 5.732-.482 8.78l-.012 2.72a665.32 665.32 0 0 0 .008 5.859c.017 3.1.01 6.198-.004 9.298-.03 7.706-.017 15.413-.005 23.12.008 6.498 0 12.997-.03 19.496-.006 3.038.01 6.075.028 9.113-.001 14.146-1.192 25.964-11.503 36.614-3.597 3-3.597 3-6 3l1-4h3v-3l3-3c1.428-2.288 2.704-4.632 4-7h2c1.1-10.391 1.058-20.672.922-31.105-.061-5.063-.091-10.127-.127-15.19-.048-6.413-.105-12.825-.193-19.238-.07-5.215-.11-10.43-.132-15.645a538.092 538.092 0 0 0-.074-5.944c-.048-2.76-.059-5.517-.061-8.277l-.07-2.473c.02-2.28.02-2.28.735-6.128 3.038-2.677 4.835-3.899 8.875-4.25L411 236v-2c4.517-.366 4.517-.366 6.813 1.375C419 237 419 237 419 239l5-1v129l2.324.465L429 368l2.813.563L434 369c0 3 0 3-1 5l4-2v-2c3.462-3 3.462-3 6-3V256h-2c-.969-5.372-.969-5.372-1-8 1.438-1.75 1.438-1.75 3-3v-4l-3-1 .125-3.25c-.066-4.269-.066-4.269-2.125-7.75l-2.5-.438L433 228l-2-5c-2.52-.737-2.52-.737-5-1l-1-2c-1.39-2.045-2.492-2.88-4.906-3.45-4.158-.677-4.158-.677-8.094.45v-2c-2.379.4-4.752.819-7.125 1.25l-2.016.332c-4.727.88-8.004 2.395-11.859 5.418l-1 2h-2l-.188 1.875C387 228 387 228 384.438 229.25L382 230c1.341-5.533 5.552-8.784 10-12h2v-2c13.669-4.8 23.872-5.772 37.094 1.086Z"/><path fill="#E08F5D" d="M304.625 271.875 307 272l-1.438 2.25c-1.34 2.36-2.074 4.116-2.562 6.75l-5-1-.375 1.688c-.685 2.533-1.616 4.891-2.625 7.312h-2a728.196 728.196 0 0 0-.938 4.438l-.527 2.496c-1.708 9.786-1.665 19.456-1.633 29.351l.005 5.006c.003 4.365.013 8.73.024 13.094.01 4.465.015 8.93.02 13.394.01 8.74.028 17.48.049 26.221l3 1-.324 2.266-.363 2.984-.387 2.953c.088 3.321.763 4.464 3.074 6.797 2.497.983 2.497.983 5 1l2-2v2l9-1-.051-3.711c-.16-11.55-.307-23.1-.444-34.65-.07-5.938-.145-11.876-.229-17.814-.08-5.731-.15-11.463-.214-17.195-.025-2.185-.055-4.37-.088-6.555-.046-3.064-.08-6.128-.11-9.192-.016-.901-.032-1.802-.05-2.73-.034-5.126.516-9.298 2.186-14.153h2l2-5c8.375 0 8.375 0 12 1v2l4 1v3l4 1c.027 1.562.047 3.125.063 4.688l.035 2.636C336 306 336 306 335.495 308.256c-1.016 5.63-.473 11.422-.308 17.119l.057 3.945c.208 7.146.623 11.816 4.756 17.68.585 2.363.801 4.563 1 7h2l-1 3-2-4h-2c-.818-1.893-1.63-3.79-2.438-5.688l-1.37-3.199c-2.214-5.783-2.388-11.23-2.508-17.351l-.063-2.67c-.066-2.8-.125-5.603-.183-8.404l-.131-5.713c-.107-4.659-.209-9.317-.307-13.975-3.86-2.112-6.564-2.467-11-2-2.852 1.327-2.852 1.327-5 4-.745 3.148-.67 6.24-.628 9.463l-.022 2.903c-.018 3.169-.002 6.336.013 9.505a2995.54 2995.54 0 0 1-.031 6.606c-.029 5.8-.03 11.599-.022 17.399.007 9.28-.024 18.56-.063 27.84-.009 3.242-.003 6.484.004 9.726l-.011 5.966.017 2.732c-.02 4.368-.102 7.93-2.257 11.86-3.423 2.804-7.676 4.257-12.063 4.625-5.038-.8-7.59-2.88-10.937-6.625-1.15-2.301-1.13-3.606-1.14-6.166l-.018-2.646-.003-2.91-.015-3.061c-.015-3.355-.022-6.71-.027-10.065l-.017-6.989c-.01-4.893-.017-9.787-.02-14.68-.006-6.26-.03-12.518-.058-18.777-.019-4.817-.024-9.634-.026-14.45-.003-2.307-.01-4.614-.024-6.92-.017-3.236-.015-6.471-.008-9.707l-.028-2.868c.054-8.76 1.71-15.778 7.947-22.199l2.378-2.496c4.051-4.066 4.051-4.066 6.684-4.191Z"/><path fill="#FC7453" d="M411 149c-5.625 3-5.625 3-9 3l-.438 1.875C401 156 401 156 400 158l6-2-.988 3.02c-1.118 3.93-1.24 7.569-1.207 11.664l.008 2.122c.011 2.21.036 4.42.062 6.631.01 1.51.02 3.02.027 4.53.022 3.678.057 7.355.098 11.033l3-1a81.355 81.355 0 0 1 4.688-.063l2.449.028L416 194v2l-6 1v2c-6.462-.026-11.195-.799-16.172-5.098-6.352-6.61-8.68-12.767-8.548-21.92.473-7.721 3.636-13.527 8.704-19.205 2.765-2.437 5.462-2.952 9.016-3.777l2.188-.688c2.19-.377 3.713.013 5.812.688Zm-10 43v3l2-2-2-1Z"/><path fill="#FD39E0" d="M438 228h2a339.88 339.88 0 0 1 1.875 3.563l1.055 2.003c3.194 7.264 3.352 13.735 3.313 21.592l.006 3.664c.003 3.3-.003 6.599-.013 9.898-.01 3.463-.007 6.926-.007 10.389 0 5.813-.01 11.627-.023 17.44-.016 6.71-.021 13.418-.02 20.128 0 7.16-.007 14.32-.016 21.48a7341.79 7341.79 0 0 0-.003 6.167c-.001 3.84-.011 7.679-.022 11.518l.002 3.432c-.057 14.04-.057 14.04-2.46 17.757-2.652 2.309-4.49 3.877-8.082 4.153-3.132-.32-5.78-.771-8.605-2.184v-2l-3-1-1-9c7.429 1 7.429 1 11 2 0 3 0 3-1 5l4-2v-2c3.462-3 3.462-3 6-3V256h-2c-.969-5.372-.969-5.372-1-8 1.438-1.75 1.438-1.75 3-3v-4l-3-1 .125-3.188c-.116-3.552-.597-5.66-2.125-8.812Z"/><path fill="#E67586" d="M381 230h1c.252 5.542.252 5.542-.97 7.764-1.43 3.103-1.455 5.86-1.635 9.267l-.113 2.12c-.433 8.777-.513 17.563-.598 26.349l-.063 5.447c-.055 4.721-.105 9.442-.153 14.164-.05 4.84-.106 9.681-.161 14.522-.107 9.455-.209 18.911-.307 28.367h-2v3c-4.303 3.586-9.636 4.115-15 5l-1-6-4-1 .016-3.82c.018-4.704.03-9.408.039-14.112.005-2.031.012-4.062.02-6.093.013-2.93.018-5.858.023-8.788l.015-2.725c0-5.248-.35-10.268-1.113-15.462h-3l-1-7-3-1v-2h-2v-2l-3-1v-2c-4.946-1.385-9.87-2-15-2v-3l-7 1v2c-11.522 1.148-11.522 1.148-17 1 3.51-4.426 7.631-5.867 13-7 10.734-1.158 20.43 1.425 29 8 7.553 6.318 11.185 13.342 13 23 .215 2.97.166 5.908.09 8.883l-.06 5.035a2026.88 2026.88 0 0 1-.146 7.833 952.101 952.101 0 0 0-.107 7.632l-.066 2.349c-.044 4.83.614 8.077 3.289 12.268 2.435 1.217 3.744 1.047 6.438.813l2.37-.168c3.07-.903 3.648-1.828 5.192-4.645.442-3.035.396-6.046.369-9.108l.011-2.79c.007-2 .006-3.999 0-5.998-.009-3.17.001-6.34.017-9.511.04-9.014.041-18.028.039-27.043 0-5.516.019-11.032.05-16.548.01-3.112-.002-6.223-.015-9.335l.03-5.783-.029-2.592c.076-6.43 1.823-11.488 4.528-17.292Z"/><path fill="#E15DCB" d="M424 149c6.864 3.432 11.776 7.644 14.875 14.813 2.48 7.704 1.59 14.62-1.676 21.93-3.39 6.384-8.174 10.652-14.941 13.35-3.612 1.006-6.701 1.173-10.445 1.157l-3.668.016C405 200 405 200 402 198l16 1 1-3c2.066-.95 2.066-.95 4.563-1.688.826-.25 1.652-.502 2.503-.761L428 193v-2h4c.027-2.48.047-4.958.063-7.438l.025-2.142c.009-1.807-.036-3.614-.088-5.42l-1-1a74.456 74.456 0 0 1-.063-4.563l.028-2.503L431 166h2l1-5h-2l-1-2h-2l-1 3-1-3-1.875 1.063L423 161l-2-1 1-6h2v-5Z"/><path fill="#E578B3" d="m410.813 236.813 2.957.082L416 237v2l-2.117.367-2.758.508-2.742.492c-2.548.463-2.548.463-4.383 2.633-.197 2.92-.27 5.745-.255 8.666l-.011 2.72c-.007 1.956-.01 3.911-.008 5.867 0 3.104-.012 6.207-.03 9.31a5895.52 5895.52 0 0 0-.077 26.48 2831.91 2831.91 0 0 1-.065 16.191c-.01 2.05-.012 4.1-.007 6.15.037 15.103-.441 28.145-11.547 39.616-3.597 3-3.597 3-6 3l1-4h3v-3l3-3c1.428-2.288 2.704-4.632 4-7h2c1.095-10.399 1.07-20.694.953-31.136-.043-4.024-.066-8.049-.09-12.073-.046-7.467-.1-14.933-.185-22.4-.06-5.22-.095-10.442-.113-15.664-.012-1.985-.033-3.97-.063-5.954a601.52 601.52 0 0 1-.054-8.285l-.059-2.484c.016-2.276.016-2.276.611-6.004 3.524-3.013 6.257-3.352 10.813-3.188Z"/><path fill="#E955CF" d="M330 203c8.385 2.396 13.477 6.684 18 14 3.247 6.762 3.216 14.219.938 21.305C345.19 246.47 340.212 251.418 332 255c-2.25-.375-2.25-.375-4-1 1.188-1.5 1.188-1.5 3-3 2.688-.188 2.688-.188 5 0l-1-3c.901-3.397 1.497-5.497 4-8h5l-2-19h4l-2-5-3 1c-2.688-.438-2.688-.438-5-1l-1-8-5-2v-3Z"/><path fill="#FA7E38" d="M308 209c.688 1.594.688 1.594 1 4-1.383 3.423-3.064 6.624-4.75 9.906-1.281 3.171-1.421 4.023-.25 7.094l-.563 1.875c-.634 3.083.525 5.183 1.563 8.125.375 2.327.72 4.66 1 7l3 1v2c4.069 1.852 7.89 2.546 12.313 3.125l3.8.508L328 254v2c-8.348.714-13.915-.534-21-5l-3.313-2.063c-5.031-5.5-7.907-12.588-8.25-20.062.377-6.867 3.024-13.684 7.563-18.875 3-1 3-1 5-1Z"/><path fill="#FEDCF8" d="M417 240c2.473 2.086 3.862 3.292 4.492 6.522l-.011 2.894.017 3.332-.044 3.64.002 3.844c.001 3.475-.022 6.95-.05 10.424-.025 3.633-.028 7.266-.033 10.899a5120.87 5120.87 0 0 1-.085 20.633c-.045 7.83-.067 15.661-.087 23.492-.042 16.107-.112 32.213-.201 48.32h2l.25 2.375c.467 2.737.467 2.737 2.625 3.813L428 381l3 2c-3.25-.063-3.25-.063-7-1-4.116-4.627-5.118-10.22-5.151-16.23l-.026-3.208-.012-3.503-.026-3.702c-.017-2.654-.033-5.308-.045-7.962-.02-4.198-.048-8.396-.077-12.594-.06-8.913-.112-17.826-.163-26.738-.055-9.62-.112-19.238-.178-28.857-.028-4.172-.051-8.343-.071-12.515-.017-3.207-.04-6.414-.062-9.62l-.012-3.497-.026-3.216-.015-2.786c-.138-2.61-.56-5.026-1.136-7.572Z"/><path fill="#FEEED5" d="m288 287 2 1-.49 1.866c-.72 4.432-.657 8.794-.655 13.277l-.01 3.086c-.01 3.362-.012 6.725-.013 10.087l-.01 7.013c-.006 4.896-.008 9.793-.007 14.69 0 6.28-.014 12.56-.031 18.84-.011 4.826-.013 9.652-.013 14.477 0 2.316-.005 4.632-.013 6.948-.01 3.234-.007 6.468 0 9.703-.007.96-.012 1.919-.018 2.907l.013 2.672-.002 2.316c.282 2.4 1.057 4.032 2.249 6.118h-3c-5.183-10.366-3.285-26.929-3.23-38.313v-5.02c.002-3.462.01-6.924.024-10.386.017-4.44.021-8.881.02-13.322 0-3.435.006-6.87.013-10.304l.006-4.919c.002-2.273.011-4.545.022-6.818l.011-3.913C285 306 285 306 286 304c.393-2.875.746-5.741 1.063-8.625l.275-2.43c.224-1.981.443-3.963.662-5.945Z"/><path fill="#EE56BE" d="M431.094 217.086c1.656 1.039 1.656 1.039 3.906 2.914v2c.596.235 1.191.47 1.805.71 5.163 3.033 8.081 10.05 9.632 15.665.51 3.277.475 4.603-.437 7.625l-.55-1.977c-1.43-4.968-3.038-9.429-5.45-14.023v-2h-7l-.688-2.438L431 223c-2.52-.737-2.52-.737-5-1l-1-2c-1.39-2.045-2.492-2.88-4.906-3.45-4.158-.677-4.158-.677-8.094.45v-2c-2.379.4-4.752.819-7.125 1.25l-2.016.332c-4.727.88-8.004 2.395-11.859 5.418l-1 2h-2l-.188 1.875C387 228 387 228 384.438 229.25L382 230c1.341-5.533 5.552-8.784 10-12h2v-2c13.669-4.8 23.872-5.772 37.094 1.086Z"/><path fill="#E77B65" d="m324.625 290.938 3.602.027L331 291l1 4 4 1c.027 1.562.047 3.125.063 4.688l.035 2.636C336 306 336 306 335.495 308.256c-1.016 5.63-.473 11.422-.308 17.119l.057 3.945c.208 7.146.623 11.816 4.756 17.68.585 2.363.801 4.563 1 7h2l-1 3-2-4h-2c-.818-1.893-1.63-3.79-2.438-5.688l-1.37-3.199c-2.214-5.783-2.388-11.23-2.508-17.351l-.063-2.67c-.066-2.8-.125-5.603-.183-8.404l-.131-5.713c-.107-4.659-.209-9.317-.307-13.975-3.875-2.115-6.548-2.46-11-2-3.383 1.865-3.383 1.865-6 4v-3h2v-3c2.884-1.442 5.417-1.094 8.625-1.063Z"/><path fill="#DD7694" d="M381 230h1c.252 5.542.252 5.542-.97 7.764-1.43 3.103-1.455 5.86-1.635 9.267l-.113 2.12c-.433 8.777-.513 17.563-.598 26.349l-.063 5.447c-.055 4.721-.105 9.442-.153 14.164-.05 4.84-.106 9.681-.161 14.522-.107 9.455-.209 18.911-.307 28.367h-2v3c-4.318 3.598-9.631 4.081-15 5-4.63-9.537-4.48-18.365-4.25-28.688.02-1.587.038-3.175.055-4.763.043-3.85.112-7.7.195-11.549h1l.044 2.934c.058 3.612.136 7.224.218 10.836.034 1.559.062 3.119.084 4.678.034 2.25.087 4.498.142 6.747l.02 2.094c.137 4.589 1.077 7.808 3.492 11.711 2.435 1.217 3.744 1.047 6.438.813l2.37-.168c3.07-.903 3.648-1.828 5.192-4.645.442-3.035.396-6.046.369-9.108l.011-2.79c.007-2 .006-3.999 0-5.998-.009-3.17.001-6.34.017-9.511.04-9.014.041-18.028.039-27.043 0-5.516.019-11.032.05-16.548.01-3.112-.002-6.223-.015-9.335l.03-5.783-.029-2.592c.076-6.43 1.823-11.488 4.528-17.292Z"/><path fill="#F8784B" d="M393 154c1.231 2.463 1.072 4.28 1 7h-4l.625 2.25c.375 2.75.375 2.75-.582 4.652-2.032 4.088-1.723 8.943-.367 13.239.707 1.65 1.507 3.26 2.324 4.859l6-2 3 10 3-1 1 2 2-1c1.54-.07 3.083-.085 4.625-.063l2.477.028L416 194v2l-6 1v2c-6.462-.026-11.195-.799-16.172-5.098-6.358-6.616-8.659-12.76-8.554-21.913.393-6.682 2.922-13.185 7.726-17.989Z"/><path fill="#FEF6E2" d="m318 294 2 1-1.438 2.25c-2.09 3.679-2.685 6.683-2.7 10.88-.005.814-.01 1.629-.017 2.468l-.003 2.681-.015 2.844c-.01 2.037-.02 4.074-.026 6.111-.012 3.224-.031 6.447-.053 9.67a8909.82 8909.82 0 0 0-.15 27.496c-.02 5.606-.056 11.213-.1 16.82a1245.2 1245.2 0 0 0-.026 6.41c-.005 2.987-.028 5.974-.055 8.962l.009 2.675c-.065 4.754-.41 7.821-3.426 11.733l-4-1-1 3c-4.828 1.557-9.295.58-14-1l-2-2 1-3 1.5 1.5c3.454 2.072 6.615 2.083 10.5 1.5 3.301-1.4 3.301-1.4 6-3h2c1.254-4.851 1.145-9.62 1.142-14.592l.01-2.909c.008-2.08.013-4.16.017-6.24.007-3.29.023-6.58.041-9.872.052-9.354.1-18.708.116-28.063.01-5.724.04-11.449.081-17.173.013-2.182.018-4.364.015-6.547-.002-3.047.02-6.094.048-9.141l-.02-2.738c.092-6.141.092-6.141 2.583-9.316L318 294Z"/><path fill="#C753C0" d="M446 246h1c.07 16.455.123 32.91.155 49.365.016 7.641.037 15.282.071 22.922.03 6.66.05 13.32.056 19.981.004 3.526.013 7.052.035 10.578.024 3.938.025 7.876.024 11.815l.032 3.533c-.038 10.063-.038 10.063-3.373 14.806-3.979 3.104-6.565 4.35-11.625 4.063-4.402-.708-6.584-2.552-9.375-6.063l2-1 2 1v2c6.581 1.315 6.581 1.315 13.031.2 2.734-2.058 3.887-3.82 4.605-7.138.603-5.33.542-10.699.57-16.056l.03-3.609c.025-3.247.047-6.495.067-9.742.022-3.4.05-6.801.076-10.202.05-6.431.095-12.862.138-19.294.05-7.325.105-14.65.16-21.976.114-15.06.22-30.122.323-45.183Z"/><path fill="#FB7844" d="M394 154h2c3.789 6.664 1.927 14.696 1 22l-5 1 1 10c-3.74-2.493-3.98-3.68-5-8-.48-5.48.028-9.823 2-15v-3l3-1 1-6Z"/><path fill="#F348DB" d="M438 228h2a339.88 339.88 0 0 1 1.875 3.563l1.055 2.003c3.211 7.302 3.347 13.804 3.297 21.703v3.698c0 3.328-.01 6.656-.024 9.984-.013 3.485-.014 6.97-.016 10.454-.006 6.59-.023 13.181-.043 19.772-.022 7.507-.033 15.013-.043 22.52-.021 15.434-.056 30.869-.101 46.303h-1l-.013-1.928a63028.33 63028.33 0 0 0-.326-46.42c-.056-7.482-.11-14.965-.158-22.447-.043-6.521-.09-13.042-.14-19.563-.026-3.453-.051-6.907-.072-10.36-.023-3.853-.054-7.706-.086-11.559l-.017-3.48-.03-3.175-.02-2.762c-.048-2.467-.048-2.467-1.138-5.306l-3-1 .125-3.188c-.116-3.552-.597-5.66-2.125-8.812Z"/><path fill="#F67F46" d="M316 288c8.375 0 8.375 0 12 1v2l-12 1v3h-2v5h-2v97h-1c-.177-12.526-.343-25.052-.495-37.579-.07-5.817-.145-11.633-.229-17.45-.08-5.615-.15-11.23-.214-16.845-.025-2.14-.055-4.281-.088-6.422-.046-3.002-.08-6.003-.11-9.005-.016-.882-.032-1.764-.05-2.672-.034-5.082.536-9.212 2.186-14.027h2l2-5Z"/><path fill="#FE3FEE" d="M444 245v124l-3-1 2-1V256h-2c-1.35-7.49-1.35-7.49.375-10 1.625-1 1.625-1 2.625-1Z"/><path fill="#FEC2DA" d="M376 243h1c.093 12.04.164 24.078.207 36.118.021 5.59.05 11.18.095 16.77.043 5.396.067 10.79.078 16.185.007 2.058.021 4.117.043 6.175.029 2.883.033 5.764.031 8.647l.044 2.581c-.028 4.04-.192 6.036-2.39 9.538-2.942 2.772-4.994 3.006-8.913 3.271C364 342 364 342 360.938 339.562c-.64-.845-1.28-1.69-1.938-2.562h3v2l2.25-.563c2.756-.438 4.122-.138 6.75.563l3-1v-3h2v-92Z"/><path fill="#FEE6FD" d="M404 242c1.691 3.382 1.156 7.224 1.161 10.944l.015 2.81c.015 3.076.022 6.153.027 9.23l.017 6.406c.01 4.482.017 8.964.02 13.447.006 5.741.03 11.482.058 17.223.019 4.413.024 8.826.026 13.24.003 2.115.01 4.232.024 6.348.017 2.964.015 5.926.008 8.89l.028 2.645c-.034 5.077-.736 8.348-3.384 12.817-.7 1.989-1.377 3.986-2 6h-3l.813-1.875c2.932-7.717 4.633-14.6 4.604-22.873l.026-2.778c.024-2.993.029-5.985.034-8.978.014-2.09.03-4.182.047-6.272.041-5.476.067-10.951.087-16.427.036-8.796.097-17.591.159-26.386.019-3.074.03-6.148.041-9.222l.031-5.605.003-2.605c.042-5.866.042-5.866 1.155-6.979Z"/><path fill="#FA44D4" d="M423 367c7.429 1 7.429 1 11 2 0 3 0 3-1 5l5-1-1 3c-2.063.688-2.063.688-4 1l7 1v2c-2.485 1.243-3.764.954-6.5.625l-2.406-.273C429 380 429 380 427 379v-2l-3-1-1-9Z"/><path fill="#FFF5FB" d="M381 228c0 3.268-.726 4.86-1.962 7.856-3.145 9.266-2.643 18.769-2.647 28.44-.015 2.046-.032 4.092-.05 6.137-.044 5.347-.064 10.692-.08 16.039-.019 5.47-.06 10.94-.1 16.41A8514.805 8514.805 0 0 0 376 335h-1c-.046-12.266-.082-24.531-.104-36.797-.01-5.695-.024-11.39-.047-17.087a5470.66 5470.66 0 0 1-.039-16.495c-.003-2.095-.01-4.191-.021-6.287-.015-2.94-.017-5.88-.016-8.819l-.022-2.615c.022-6.383.827-12.339 4.249-17.9l2-1Z"/><path fill="#FB43D8" d="M434 161h2c2.407 9.092 3.37 16.441-1 25h-3l.035-2.152c.01-.92.018-1.839.027-2.786l.036-2.777c.161-2.25.161-2.25-1.098-3.285a74.456 74.456 0 0 1-.063-4.563l.028-2.503L431 166h2l1-5Z"/><path fill="#E48A80" d="M332 300h1a577.96 577.96 0 0 1 1 40l3 1c2.631 4.25 3.506 8.057 4 13h2l-1 3-2-4h-2c-.818-1.893-1.63-3.79-2.438-5.688l-1.37-3.199c-2.112-5.517-2.33-10.612-2.29-16.476l.005-2.4c.005-2.517.018-5.033.03-7.55.006-1.711.01-3.423.014-5.134.011-4.185.028-8.369.049-12.553Z"/><path fill="#FFF0E8" d="M320 293c4.165-.408 6.276-.535 9.703 1.998 2.91 3.802 2.962 6.751 2.863 11.346l.017 2.44c.017 2.573.001 5.144-.02 7.716-.077 11.694.283 21.44 4.437 32.5.355 1.328.698 2.66 1 4-3-1-3-1-3.914-2.813l-.711-2.187c-.786-2.743-.786-2.743-2.375-5-1.573-9.792-1.037-19.827-.873-29.701l.033-3.756.051-3.374c-.223-3.356-1.015-6.038-2.211-9.169l-2.313-.313c-2.858-.73-3.844-1.457-5.687-3.687Z"/><path fill="#E462A2" d="M401 320h1c.118 3.312.188 6.624.25 9.938l.102 2.806c.118 8.419-2.169 14.955-7.352 21.631l-1.438 1.898c-1.71 1.89-3.432 3.327-5.562 4.727h-2l1-4h3v-3l3-3c1.428-2.288 2.704-4.632 4-7h2l.184-2.457A1175.68 1175.68 0 0 1 401 320Z"/><path fill="#E16DAD" d="M422 214c-3.27 1.031-5.86.964-9.25.563l-2.703-.31L408 214l-1 2c-2.074.492-2.074.492-4.688.875-4.745.857-7.595 2.075-11.312 5.125l-1 2h-2l-.188 1.875C387 228 387 228 384.438 229.25L382 230c1.341-5.533 5.552-8.784 10-12h2v-2c19.146-6.722 19.146-6.722 28-2Z"/><path fill="#E263B6" d="M330 203c8.604 2.458 13.081 6.814 18 14l-1 2-2-2c-2.203-.46-2.203-.46-4.625-.625l-2.477-.227L336 216l-1-8-5-2v-3Z"/><path fill="#FDE9D5" d="m299 216-1 3.375c-2.021 8.32-1.427 14.798 2.125 22.594C301 244 301 244 301 246l1.688.75c3.546 1.917 6.47 4.407 9.312 7.25-7.745-.745-7.745-.745-11-4v-2h-2l-1-7h-2c-1.292-4.915-1.111-9.773-1.063-14.813l.014-2.677c.012-2.17.03-4.34.049-6.51 2-1 2-1 4-1Z"/><path fill="#E57B98" d="M344 359a302166228.929 302166228.929 0 0 0 6.738 1.465C353 361 353 361 356 362v2h2v2h10v-2h9l1-2h8c-7.366 4.91-15.19 6.86-24 6-6.682-1.351-12.592-3.8-18-8v-1Z"/><path fill="#EF767E" d="M330 202v2l-9 1v3h-3l-1 6h-1l-1-7-2.25.938c-2.273.878-4.353 1.649-6.75 2.062l-2-1c1.5-1.25 1.5-1.25 4-3l1.555-1.09c6.465-3.898 13.106-3.281 20.445-2.91Z"/><path fill="#FD41DF" d="M344 216c1.977 1.102 1.977 1.102 4 3 .46 2.96.46 2.96.375 6.375l-.04 3.398c-.327 3.15-.895 5.418-2.335 8.227l-2 1-2-17h4l-2-5Z"/><path fill="#EF883F" d="m307 272-1.438 2.25c-1.34 2.36-2.074 4.116-2.562 6.75l-5-1-.375 1.688c-.685 2.533-1.616 4.891-2.625 7.312h-3c-.108-5.966 1.092-8.65 5.25-13 3.299-3.276 5.051-4.533 9.75-4Z"/><path fill="#E48E63" d="M298 238h2a264.271 264.271 0 0 1 3 5l2 1 1 3 3 1v2c4.069 1.852 7.89 2.546 12.313 3.125l3.8.508L328 254v2c-9.854.843-16.598-1.49-24.438-7.438-2.703-2.703-4.147-5.025-5.562-8.562v-2Z"/><path fill="#FD7F2E" d="M390 161h2c1.666 12.705 1.666 12.705.438 16.938-.548 2.583.023 4.501.562 7.062l-1 2c-3.528-3.528-4.136-7.658-4.25-12.5.077-3.823.883-6.913 2.25-10.5v-3Z"/><path fill="#FDD4F9" d="M437 184c2.565 2.565 2.54 4.477 3 8l-3.375.813c-3.843.845-3.843.845-5.625 4.187-6.742 5.619-14.693 4.359-23 4v-1l2.09-.078c8.748-.528 16.54-2.553 22.91-8.922 1.497-2.28 2.74-4.573 4-7Z"/><path fill="#ED9656" d="M393 154c1.231 2.463 1.072 4.28 1 7h-4l.625 2.25c.375 2.75.375 2.75-.602 4.574-1.292 2.747-1.154 4.721-1.023 7.738.222 5.106.222 5.106-2 8.438-2.464-4.928-1.777-12.607-1-18 1.627-4.327 3.685-8.685 7-12Z"/><path fill="#F85D9B" d="m400 216 2 1v2l-4 1v2l-2.75.125c-4.336 1.167-4.992 3.111-7.25 6.875a248.794 248.794 0 0 1-4 3c-1.252 2.083-1.252 2.083-2 4-.313-2.813-.313-2.813 0-6 2.438-1.688 2.438-1.688 5-3l1-3h2l.75-1.855c1.477-2.535 2.63-3.21 5.25-4.458l2.125-1.05L400 216Zm-19 20c1.099 3.297.871 4.405.063 7.688l-.59 2.449L380 248h-1c-.286-8.571-.286-8.571 2-12Z"/><path fill="#E48D78" d="M338 268v1l-3.688-.5c-7.2-.8-15.3-1.64-22.312.5v2l-8 1c8.168-10.298 23.155-7.952 34-4Z"/><path fill="#DF9362" d="m311 397 2 1c-.368 2.465-.59 3.67-2.566 5.266-5.102 2.515-8.744 3.56-14.434 2.734-2.372-1.459-4.008-3.008-6-5l4-1v3c7.97-.436 7.97-.436 15-4h2v-2Z"/><path fill="#F28436" d="M291 384h2l-.324 2.266-.363 2.984-.387 2.953c.088 3.321.763 4.464 3.074 6.797 2.497.983 2.497.983 5 1l2-2v2h4v2c-2.525 1.262-4.312 1.099-7.125 1.063l-2.758-.028L294 403v-3h-4c-.027-2.48-.047-4.958-.063-7.438l-.025-2.142c-.009-1.807.036-3.614.088-5.42l1-1Z"/><path fill="#EE7676" d="M392 191h6v3l6-1 1 2 2-1c1.54-.07 3.083-.085 4.625-.063l2.477.028L416 194v2l-6 1v2c-7.622-.031-12.498-1.59-18-7v-1Z"/><path fill="#FB696C" d="m340 347 3 1 1 5 5-1c2.624 3.061 3 3.732 3 8-1.688.688-1.688.688-4 1-2.75-1.188-2.75-1.188-5-3v-4h-2l-1-7Zm7 8 1 4 1-4h-2Z"/><path fill="#F77B4D" d="M339 269v2h-11v-3l-7 1v2l-11 1 2-1v-2c7.65-4.657 18.776-2.08 27 0Z"/><path fill="#F94DBE" d="m424 151 5 2v2l3 1-1 3h-2l-1 3-1-3-1.875 1.063L423 161l-2-1 1-6h2v-3Z"/><path fill="#FDECDE" d="M408 146c-2.022 1.023-4.042 2.018-6.113 2.938-6.729 3.25-10.07 7.742-13.887 14.062l-1-3-2-1 2-3h3v-2h2l.238-1.86c.762-2.14.762-2.14 2.617-3.406 4.545-1.918 8.107-3.25 13.145-2.734Z"/><path fill="#DE58C3" d="M445 368c1.188 1.563 1.188 1.563 2 4-1.16 4.327-2.368 6.978-6.125 9.5-4.298 2.104-8.374 1.998-12.875.5-3.063-2.563-3.063-2.563-5-5l2-1 2 1v2c6.581 1.315 6.581 1.315 13.031.2 3.133-2.358 3.974-4.224 4.844-8.012L445 368Z"/><path fill="#E965B7" d="M416 237v2l-2.117.367-2.758.508-2.742.492c-2.548.463-2.548.463-4.383 2.633-.648 2.57-.648 2.57-1 5h-3c-.234-2.854-.408-5.203 0-8 4.02-4.437 10.473-3.261 16-3Z"/><path fill="#EF53C3" d="M411 234c4.517-.366 4.517-.366 6.813 1.375C419 237 419 237 419 239l5-1v5h-2l-1 3-1.375-2.438c-1.372-2.65-1.372-2.65-3.625-3.562v-3h-10v-1h5v-2Z"/><path fill="#FB6778" d="M355 305h1l1 38-4-3c-.192-2.253-.192-2.253.215-4.895.542-4.157.937-8.238 1.101-12.43l.127-3.173.12-3.19.13-3.318c.105-2.664.207-5.33.307-7.994Z"/><path fill="#F543E6" d="M440 368c2.43 3.644 2.162 5.712 2 10-3.118 1.56-5.67.666-9 0l-1-2 5-1-.188-2.375L437 370l3-2Z"/><path fill="#FEEEFE" d="M419 352h1l1 22h2l.25 2.375c.467 2.737.467 2.737 2.625 3.813L428 381l3 2c-3.25-.063-3.25-.063-7-1-3.908-4.393-5.136-9.803-5.098-15.547l.01-2.558.026-2.645.013-2.691c.012-2.187.028-4.373.049-6.559Z"/><path fill="#FEF0E4" d="M320 293c4.051-.397 6.28-.48 9.719 1.813 3.374 4.714 2.828 8.859 2.594 14.5l-.069 3.11c-.059 2.528-.14 5.052-.244 7.577h-1l-.148-3.508-.227-4.617-.094-2.305c-.233-4.516-.858-8.312-2.531-12.57l-2.313-.313c-2.858-.73-3.844-1.457-5.687-3.687Z"/><path fill="#E19662" d="M303 210c.648 1.828.648 1.828 1 4l-2.375 2.75c-4.44 5.571-3.535 13.46-3.625 20.25-2.868-4.302-2.591-7.95-2-13 1.526-5.268 3.578-9.705 7-14Z"/><path fill="#E172A3" d="M429 192h2v2c-6.157 4.691-11.496 6.283-19.188 6.25l-3.667.016C405 200 405 200 402 198l16 1 1-3c2.031-.914 2.031-.914 4.5-1.625 3.016-.722 3.016-.722 5.5-2.375Z"/><path fill="#FA774C" d="M316 288c8.375 0 8.375 0 12 1v2l-12 1v3h-2v3h-2v-5h2l2-5Z"/><path fill="#F847D1" d="m423 216 4 1v2l2.188.25c3.45.92 5.295 2.233 7.812 4.75v4h-4l-.688-2.438L431 223c-2.52-.737-2.52-.737-5-1l-3-6Z"/><path fill="#FEDCFB" d="m344 211 5 1c3.423 7.942 3.004 14.495 2 23h-1l-.043-2.457c-.353-8.206-2.041-14.333-5.957-21.543Z"/><path fill="#FCD5E3" d="M374 335h2c-1.448 4.586-1.448 4.586-3.75 6.313-3.02.922-5.103 1.137-8.25.687-2.875-2.5-2.875-2.5-5-5h3v2l2.25-.563c2.756-.438 4.122-.138 6.75.563l3-1v-3Z"/><path fill="#DC67B0" d="m345 241 1 3c-8.953 9.21-8.953 9.21-14 11-2.25-.375-2.25-.375-4-1 1.97-2.55 3.015-3.003 6.25-3.688 5.144-1.8 7.505-5.071 10.75-9.312Z"/><path fill="#FEF1FB" d="M381 228c0 3.304-.768 5.236-1.938 8.313-2.373 6.85-2.849 13.48-3.062 20.687h-1a930.381 930.381 0 0 1-.125-8.063c-.017-.752-.034-1.504-.05-2.279-.055-6.306.797-12.168 4.175-17.658l2-1Z"/><path fill="#DB67CB" d="M436 222c6.125 5.25 9.91 12.059 10.813 20.125L447 246c-1.895-2.843-2.922-5.24-4.063-8.438l-1.035-2.87A70.271 70.271 0 0 1 440 228h-3l-1-6Z"/><path fill="#FEDDFC" d="M433 155c2.867.573 3.861.861 6 3 2.377 7 3.947 16.416.984 23.39L439 183l-1-2 1-3c.97-8.663-1.194-15.791-6-23Z"/><path fill="#F645D2" d="M344 216c1.984 1.145 1.984 1.145 4 3 .39 2.7.39 2.7.25 5.688l-.11 3.011L348 230l-3-4-1 6h-1l-1-11h4l-2-5Z"/><path fill="#E265BD" d="M424 149c5.496 2.748 9.6 5.797 13 11 .664 2.219.664 2.219 1 4h-2v-3h-4l-.375-2.438L431 156l-2-1v-2l-5-2v-2Z"/><path fill="#E66A98" d="M381 230h1c.253 5.56.253 5.56-.969 7.688-1.52 3.41-1.5 6.885-1.656 10.562l-.117 2.258c-.094 1.83-.177 3.661-.258 5.492h-1c-.088-3.208-.14-6.416-.188-9.625l-.076-2.738c-.058-5.347.315-8.977 3.264-13.637Z"/><path fill="#FA4EB8" d="M336 209h4v4l4 1v2c-3.29 1.097-4.713.8-8 0v-7Z"/><path fill="#F4803F" d="m390 171 4 2-1.023 1.672c-1.188 2.831-1 4.555-.602 7.578l.336 2.703L393 187c-3-2-3-2-3.715-3.797-.335-2.59-.154-4.862.152-7.453l.31-2.703L390 171Z"/><path fill="#ED7A73" d="M411 149a387.834 387.834 0 0 1-5.125 2.5l-2.883 1.406c-3.204 1.171-5.61 1.295-8.992 1.094 2.601-3.902 4.539-3.923 9-5l2.188-.688c2.193-.378 3.687.103 5.812.688Z"/><path fill="#E86A89" d="M376 341c-4.615 3.385-9.48 4.09-15 5v-4c1.936-.363 3.874-.715 5.813-1.063l3.269-.597C373 340 373 340 376 341Z"/><path fill="#FEE9DB" d="m390 189 1.25 1.172c4.309 3.885 8.473 6.42 13.75 8.828v1c-5.75.125-5.75.125-8-1v-2l-1.813-.188c-3.09-1.148-3.775-2.917-5.187-5.812v-2Z"/><path fill="#FDE8CF" d="m318 294 2 1-1.426 2.105c-1.717 3.158-2.255 5.664-2.762 9.207l-.48 3.239L315 312h-1c-.108-2.249-.186-4.5-.25-6.75l-.14-3.797c.39-3.453.39-3.453 2.406-5.906L318 294Z"/><path fill="#FCD7FA" d="M349 235h1v9l-4 2-1 2c0-3.88.408-5.367 2-8.75l1.125-2.422L349 235Z"/><path fill="#FEF4DD" d="m299 216-.938 3.25c-1.396 5.508-1.704 11.096-2.062 16.75h-1v-19c2-1 2-1 4-1Z"/><path fill="#F18637" d="M290 290h2c.131 6.43.08 12.253-3 18-.027-2.25-.046-4.5-.063-6.75l-.035-3.797c.078-2.738.27-4.872 1.098-7.453Z"/><path fill="#E57C8E" d="m314 253 14 1v2c-1.77.027-3.542.046-5.313.063l-2.988.035C317 256 317 256 314 255v-2Z"/><path fill="#FC54AD" d="m400 216 2 1v2l-4 1v2h-6v-2c1.287-.697 2.58-1.382 3.875-2.063l2.18-1.16L400 216Z"/><path fill="#FCDAF5" d="M331 201c6.6.6 6.6.6 9 3v3c-3.912-1.156-6.875-2.355-10-5l1-1Z"/><path fill="#FB705C" d="m332 295 4 1c.185 10.558.185 10.558-1 15h-1l-.184-2.738-.253-3.575-.247-3.55c-.203-3.163-.203-3.163-1.316-6.137Z"/><path fill="#F86477" d="M353 288h2c.392 1.58.763 3.164 1.125 4.75l.633 2.672c.273 2.907-.223 4.145-1.758 6.578h-1l-1-14Z"/><path fill="#FB7B2C" d="m301 398 1 2h4v2c-3.215 1.607-6.436 1.057-10 1l-1-3h5l1-2Z"/><path fill="#EB7B88" d="M344 359a302166228.929 302166228.929 0 0 0 6.738 1.465C353 361 353 361 356 362v2l2 1c-5.857.732-9.504-1.52-14-5v-1Z"/><path fill="#E09E67" d="M292 283c1.333 2.667.671 4.167 0 7h-2l-1 14h-1c-.365-7.224.009-13.336 3-20l1-1Z"/><path fill="#F8579B" d="m331 248 1 2 3 1c-2.813 1.563-2.813 1.563-6 3-3-1-3-1-5-3l7-3Z"/><path fill="#F15EA7" d="M399 337h1c.054 1.625.093 3.25.125 4.875l.07 2.742C400 347 400 347 398 349h-2l-2 4-1-2c.777-1.727.777-1.727 1.938-3.625L397 344h2v-7Z"/><path fill="#F94FBC" d="m337 242 1 2c2.025.652 2.025.652 4 1l-1 2h-2l-1 3-3-1 2-7Z"/><path fill="#E77979" d="M339 269c4.588 1.937 6.805 3.489 9 8l-2 1v-2l-3-1v-2l-4-1v-3Z"/><path fill="#FCCEE6" d="M427 198c-.988 1.488-.988 1.488-3 3a71.686 71.686 0 0 1-8.188.188l-2.271-.042c-1.847-.035-3.694-.089-5.541-.146v-1l2.3-.184 3.012-.254c.987-.08 1.973-.162 2.989-.246 3.762-.44 6.847-1.42 10.699-1.316Z"/><path fill="#DA6EC1" d="m423 376 4 1v2l5 1v2h5v1c-4.987-.12-8.096-.262-12.063-3.5C423 377 423 377 423 376Z"/><path fill="#F16E71" d="M350 354c2 2 2 2 2 6-1.688.688-1.688.688-4 1-2.75-1.438-2.75-1.438-5-3l2-1 3 1 2-4Z"/><path fill="#FA6A61" d="M313.563 247.938 317 248l2 4c-6.523.37-6.523.37-8.938-1.5L309 249c1-1 1-1 4.563-1.063Z"/><path fill="#F855AC" d="M420 192h9c-2 3-2 3-4.938 3.813C421 196 421 196 418 194h2v-2Z"/><path fill="#FDE8E9" d="m346 361 11 5v1h-10l-1-6Z"/><path fill="#FA589F" d="m389 352 3 2h-2v3l-6 1v-4c2.313-1.125 2.313-1.125 5-2Z"/><path fill="#F27160" d="m325 267 14 2v2h-11v-3l-3-1Z"/><path fill="#FCD2F7" d="M426 215c3.267-.223 5.396-.327 8.313 1.25 1.86 1.93 2.325 3.126 2.687 5.75h-2v-2l-2.25-.813c-2.616-1.13-4.552-2.396-6.75-4.187Z"/><path fill="#FDD7F3" d="M404 213c-3.265 1.884-6.281 2.493-10 3v2l-4 2c.063-1.813.063-1.813 1-4 4.528-2.486 7.768-3.383 13-3Z"/><path fill="#EB8F60" d="m311 397 2 1c-.375 1.938-.375 1.938-1 4-2.709 1.354-5.01 1.065-8 1 4.75-4 4.75-4 7-4v-2Z"/><path fill="#E78C58" d="M393 154c1.231 2.463 1.072 4.28 1 7h-4l-1 5c-.652-1.734-.652-1.734-1-4 .996-2.14.996-2.14 2.438-4.25l1.433-2.14L393 154Z"/><path fill="#FC4FAD" d="m422 154 3 1v2h2v2c-1.875 1.063-1.875 1.063-4 2l-2-1 1-6Z"/><path fill="#FCD3EE" d="M401 341h1c-.087 1.626-.195 3.25-.313 4.875l-.175 2.742C401 351 401 351 398 353c0-3.55.241-5.102 1.5-8.25l.844-2.14L401 341Z"/><path fill="#E48E5F" d="m311.25 267.75 2.75.25-2 1v2l-8 1c2.41-2.967 3.347-3.95 7.25-4.25Z"/><path fill="#E2856E" d="m304 247 5 1v2l5 2v2c-4.957-1.24-7.117-2.786-10-7Z"/><path fill="#FBE0D7" d="M314.188 201.375 316 202c-3.288 2.912-5.599 4.497-10 5v-2h3v-2c3-2 3-2 5.188-1.625Z"/><path fill="#F8EAF7" d="M437 184c2.565 2.565 2.54 4.477 3 8h-5l2-8Z"/><path fill="#FBE7D3" d="m313 401 1 2c-1.063 1.5-1.063 1.5-3 3-3.688.188-3.688.188-7 0 2.853-2.325 5.54-3.75 9-5Z"/><path fill="#FAD0C5" d="M320 293c6.35-.366 6.35-.366 9.438 1.375C331 296 331 296 331 298c-8.714-1.857-8.714-1.857-11-5Z"/><path fill="#EA854C" d="m304.75 271.75 2.25.25c-2.25 2.563-2.25 2.563-5 5-2.313-.188-2.313-.188-4-1 3.323-3.938 3.323-3.938 6.75-4.25Z"/><path fill="#FEEDDC" d="m304 206 2 2c-4.75 5.75-4.75 5.75-7 8l-1-5 2.438-.813L303 209l1-3Z"/><path fill="#F4FDF7" d="M311 200v3h-2v2h-5v-3c4.75-2 4.75-2 7-2Z"/><path fill="#FCD2F7" d="M422 374c2 3 2 3 2 5l1.813.875C428 381 428 381 431 383c-3.375-.25-3.375-.25-7-1-2.239-2.823-2-4.28-2-8Z"/><path fill="#FDD9FD" d="m441 227 4 1 1 9c-2.179-3.268-3.498-6.38-5-10Z"/><path fill="#FDE0F3" d="m385 220 4 1-6 7-1-4c1.438-2.25 1.438-2.25 3-4Z"/><path fill="#FCDCD4" d="M333 341c1.79 2.686 2.66 4.663 3.625 7.688.26.808.52 1.616.79 2.449.192.615.386 1.23.585 1.863l-3-1c-1.39-3.879-2-6.865-2-11Z"/><path fill="#F650B5" d="M411 234h5v3h-10v-1h5v-2Z"/><path fill="#FDD6EB" d="M381 228c0 3.015-.52 4.869-1.5 7.688l-.844 2.449L378 240h-1c-.296-7.684-.296-7.684 2-11l2-1Z"/><path fill="#EE794F" d="m308 209 1 4-5 1v-4c2-1 2-1 4-1Z"/><path fill="#FDD5F9" d="m444 378 1 4c-1.75 1.125-1.75 1.125-4 2-2.25-.875-2.25-.875-4-2l7-4Z"/><path fill="#F87D35" d="m304 277-1 4-5-1v-3c3.75-1.125 3.75-1.125 6 0Z"/><path fill="#FDEBFE" d="m436 218 1 2 3 1c1.188 2.063 1.188 2.063 2 4l-2 2c-4-5.625-4-5.625-4-9Z"/><path fill="#FD6085" d="M410 196h6v3h-6v-3Z"/><path fill="#F8822A" d="M291 384h2l-2 11h-1a757.916 757.916 0 0 1-.063-4.938l-.035-2.777C290 385 290 385 291 384Z"/><path fill="#FCE4E6" d="M356 286h3v10c-1.803-3.607-2.466-6.084-3-10Z"/><path fill="#DF7F83" d="M347 275a158.814 158.814 0 0 1 6 5v2c-2.438-.688-2.438-.688-5-2-.813-2.625-.813-2.625-1-5Z"/><path fill="#FC763B" d="M312 269h7c-1.125 1.5-1.125 1.5-3 3-3.188.188-3.188.188-6 0l2-1v-2Z"/><path fill="#FA4BC7" d="m338 212 6 2v2l-3 1-3-2v-3Z"/><path fill="#E28E58" d="M388 181c4 4.5 4 4.5 4 9-2.523-1.974-2.993-2.967-3.688-6.188L388 181Z"/><path fill="#F87D33" d="M390 178c2.097 2.36 2.97 3.546 3.188 6.75L393 187c-3-2-3-2-3.75-3.938C389 181 389 181 390 178Z"/><path fill="#FDE4C5" d="m296 274 4 1-6 5v-4h2v-2Z"/><path fill="#FE7938" d="m302 234 2 1c.407 2.322.744 4.657 1 7h-2c-.73-1.977-1.394-3.98-2-6l1-2Z"/><path fill="#E871A4" d="m385 224 2 4-5 2c1.875-4.875 1.875-4.875 3-6Z"/></svg>